<?xml version="1.0" encoding="UTF-8"?>
<svg width="80px" height="83px" viewBox="0 0 80 83" version="1.1" xmlns="http://www.w3.org/2000/svg" xmlns:xlink="http://www.w3.org/1999/xlink">
    <title>🎨 FOUNDATION/ICONS/Icon placeholder/24px</title>
    <g id="V2" stroke="none" stroke-width="1" fill="none" fill-rule="evenodd">
        <g id="3-4-EBU-Prepaid-Sucess" transform="translate(-568.000000, -441.000000)">
            <g id="Details" transform="translate(513.000000, 443.000000)">
                <g id="Group" transform="translate(55.000000, 0.000000)">
                    <g id="Group-2" transform="translate(0.000000, -2.000000)">
                        <circle id="Oval" stroke="#232323" stroke-width="4" fill="#FFFFFF" cx="40" cy="40" r="38"></circle>
                        <circle id="bg" stroke="#232323" stroke-width="2" cx="40" cy="40" r="31"></circle>
                        <g id="phone" transform="translate(2.000000, 2.000000)" stroke="#232323" stroke-width="2">
                            <g id="ic_PHONE_RECHARGE" transform="translate(14.000000, 6.000000)">
                                <path d="M42,1 C43.3807119,1 44.6307119,1.55964406 45.5355339,2.46446609 C46.4403559,3.36928813 47,4.61928813 47,6 L47,6 L47,74 C47,75.3807119 46.4403559,76.6307119 45.5355339,77.5355339 C44.6307119,78.4403559 43.3807119,79 42,79 L42,79 L6,79 C4.61928813,79 3.36928813,78.4403559 2.46446609,77.5355339 C1.55964406,76.6307119 1,75.3807119 1,74 L1,74 L1,6 C1,4.61928813 1.55964406,3.36928813 2.46446609,2.46446609 C3.36928813,1.55964406 4.61928813,1 6,1 L6,1 Z" id="Rectangle" fill="#FFFFFF"></path>
                                <path d="" id="Rectangle"></path>
                            </g>
                        </g>
                        <g id="list" transform="translate(20.000000, 16.000000)">
                            <path d="M38,0.5 C38.4142136,0.5 38.7892136,0.667893219 39.0606602,0.939339828 C39.3321068,1.21078644 39.5,1.58578644 39.5,2 L39.5,2 L39.5,65.7928932 L36,62.2928932 L32,66.2928932 L28,62.2928932 L24,66.2928932 L20,62.2928932 L16,66.2928932 L12,62.2928932 L8,66.2928932 L4,62.2928932 L0.5,65.7928932 L0.5,2 C0.5,1.58578644 0.667893219,1.21078644 0.939339828,0.939339828 C1.21078644,0.667893219 1.58578644,0.5 2,0.5 L2,0.5 Z" id="Rectangle" stroke="#232323" fill="#FFFFFF"></path>
                            <g id="point" transform="translate(5.000000, 8.000000)">
                                <circle id="Oval" fill="#232323" cx="6" cy="6" r="6"></circle>
                                <path d="M3,6 L5,4 L9,9" id="Line" stroke="#FFFFFF" stroke-width="2" stroke-linecap="round" stroke-linejoin="round" fill-rule="nonzero" transform="translate(6.000000, 6.500000) scale(1, -1) translate(-6.000000, -6.500000) "></path>
                            </g>
                            <rect id="Rectangle" fill="#232323" x="19" y="15" width="12" height="2" rx="1"></rect>
                            <path d="M20,11 L34,11 C34.5522847,11 35,11.4477153 35,12 C35,12.5522847 34.5522847,13 34,13 L20,13 C19.4477153,13 19,12.5522847 19,12 C19,11.4477153 19.4477153,11 20,11 Z" id="Rectangle" fill="#232323"></path>
                            <g id="point" transform="translate(5.000000, 22.000000)">
                                <circle id="Oval" fill="#232323" cx="6" cy="6" r="6"></circle>
                                <path d="M3,6 L5,4 L9,9" id="Line" stroke="#FFFFFF" stroke-width="2" stroke-linecap="round" stroke-linejoin="round" fill-rule="nonzero" transform="translate(6.000000, 6.500000) scale(1, -1) translate(-6.000000, -6.500000) "></path>
                            </g>
                            <rect id="Rectangle" fill="#232323" x="19" y="29" width="12" height="2" rx="1"></rect>
                            <path d="M20,25 L34,25 C34.5522847,25 35,25.4477153 35,26 C35,26.5522847 34.5522847,27 34,27 L20,27 C19.4477153,27 19,26.5522847 19,26 C19,25.4477153 19.4477153,25 20,25 Z" id="Rectangle" fill="#232323"></path>
                            <g id="point" transform="translate(5.000000, 36.000000)">
                                <circle id="Oval" fill="#232323" cx="6" cy="6" r="6"></circle>
                                <path d="M3,6 L5,4 L9,9" id="Line" stroke="#FFFFFF" stroke-width="2" stroke-linecap="round" stroke-linejoin="round" fill-rule="nonzero" transform="translate(6.000000, 6.500000) scale(1, -1) translate(-6.000000, -6.500000) "></path>
                            </g>
                            <rect id="Rectangle" fill="#232323" x="19" y="43" width="12" height="2" rx="1"></rect>
                            <path d="M20,39 L34,39 C34.5522847,39 35,39.4477153 35,40 C35,40.5522847 34.5522847,41 34,41 L20,41 C19.4477153,41 19,40.5522847 19,40 C19,39.4477153 19.4477153,39 20,39 Z" id="Rectangle" fill="#232323"></path>
                        </g>
                    </g>
                </g>
            </g>
        </g>
    </g>
</svg>