<?xml version="1.0" encoding="UTF-8"?>
<svg width="96px" height="96px" viewBox="0 0 96 96" version="1.1" xmlns="http://www.w3.org/2000/svg" xmlns:xlink="http://www.w3.org/1999/xlink">
    <title>MTN_LOGO</title>
    <g id="MVP-1---Homepage---Global-Navigation" stroke="none" stroke-width="1" fill="none" fill-rule="evenodd">
        <g id="10.-1920" transform="translate(-372.000000, -8.000000)">
            <g id="navigation_PRIMARY" transform="translate(0.000000, 8.000000)">
                <g id="MTN_LOGO" transform="translate(372.000000, 0.000000)">
                    <polygon id="Fill-1" fill="#FFFFFF" points="6.93368973e-14 96 96 96 96 -2.74641421e-14 6.93368973e-14 -2.74641421e-14"></polygon>
                    <polygon id="Fill-2" fill="#FFC300" points="4 92 92 92 92 4 4 4"></polygon>
                    <g id="Group-6" transform="translate(7.000000, 31.000000)">
                        <path d="M40.9999787,34 C63.6436654,34 82,26.3888416 82,17.0000214 C82,7.61115836 63.6436654,1.13686838e-13 40.9999787,1.13686838e-13 C18.3562921,1.13686838e-13 0,7.61115836 0,17.0000214 C0,26.3888416 18.3562921,34 40.9999787,34" id="Fill-3" fill="#006991"></path>
                        <polygon id="Fill-5" fill="#FFC300" points="50.9822872 12.6481883 52.048103 8.39533327 38.1297953 8.39533327 37.0642334 12.648146 41.6243392 12.648146 39.384861 21.587781 44.1818147 21.587781 46.4214198 12.6481883"></polygon>
                        <polygon id="Fill-6" fill="#FFFFFF" points="36.9305654 8.39531212 29.987468 8.39531212 25.5680409 18.1750847 25.5680409 8.39531212 18.8380982 8.39531212 14.6316989 25.1857502 19.2564111 25.1857502 21.9957324 14.3484122 21.9957324 25.1857502 25.5680409 25.1857502 30.8264631 14.3484122 28.3039774 25.1857502 32.7242084 25.1857502"></polygon>
                        <polygon id="Fill-7" fill="#FFFFFF" points="66.9220993 8.39531212 62.5062685 8.39531212 60.1937643 17.3260199 58.0872222 8.39531212 53.2470706 8.39531212 49.0414752 25.1857079 53.460733 25.1857079 55.7739988 16.0475149 58.0872222 25.1857079 62.7156576 25.1857079"></polygon>
                        <polygon id="Fill-8" fill="#FF0000" points="39.0844178 22.7871126 38.4835399 25.185674 43.2804936 25.185674 43.8813715 22.7871126"></polygon>
                    </g>
                </g>
            </g>
        </g>
    </g>
</svg>