<?xml version="1.0" encoding="UTF-8"?>
<svg width="37px" height="33px" viewBox="0 0 37 33" version="1.1" xmlns="http://www.w3.org/2000/svg" xmlns:xlink="http://www.w3.org/1999/xlink">
    <title>Success icon</title>
    <g id="EBU-Online-upgrades-Desktop" stroke="none" stroke-width="1" fill="none" fill-rule="evenodd">
        <g id="9-6-Login-Error-5" transform="translate(-942.000000, -405.000000)" fill-rule="nonzero">
            <g id="Group-4" transform="translate(588.000000, 319.000000)">
                <g id="Group" transform="translate(348.000000, 81.000000)">
                    <g id="Group" transform="translate(-1.846154, 3.673075)">
                        <g id="Group-2" transform="translate(24.724393, 10.136458)" fill="#000000">
                            <path d="M1.65289256,14.5601487 C0.740025207,14.5601487 2.05812379e-13,15.2967532 2.05812379e-13,16.2054008 C2.05812379e-13,17.1140484 0.740025207,17.8506529 1.65289256,17.8506529 C2.56575992,17.8506529 3.30578512,17.1140484 3.30578512,16.2054008 C3.30578512,15.2967532 2.56575992,14.5601487 1.65289256,14.5601487 Z" id="Path"></path>
                            <path d="M1.65289256,1.39813216 C0.805230018,1.39813216 0.106599734,2.03326559 0.0111202171,2.85151309 L2.05812379e-13,3.04338424 L2.05812379e-13,11.2696446 C2.05812379e-13,12.1782922 0.740025207,12.9148967 1.65289256,12.9148967 C2.50055511,12.9148967 3.19918539,12.2797632 3.29466491,11.4615157 L3.30578512,11.2696446 L3.30578512,3.04338424 C3.30578512,2.13473661 2.56575992,1.39813216 1.65289256,1.39813216 Z" id="Path"></path>
                        </g>
                        <path d="M7.83600295,15.9920491 L15.5872149,36.033104 C17.4504778,40.6441951 22.5183251,42.2179823 25.6820252,38.3984047 L40.490099,18.996657 C43.7466423,14.7294182 41.2826946,10.3467242 36.0087888,9.54677287 L35.4401954,9.47286513 L33.4299499,9.24144419 L26.7260328,8.52591275 L14.7811697,7.31051134 C9.14888913,6.64253351 5.89648539,10.7480792 7.83600295,15.9920491 Z M18.3970089,35.2109032 L18.2941215,34.972667 L10.6562624,15.2246925 C9.33491426,11.9500764 10.8149171,9.88022456 14.1786627,10.1599271 L25.8404619,11.345362 L32.1267948,12.0109806 L34.5132003,12.2791623 L35.3452276,12.3784782 C38.7885394,12.8013238 39.9955852,14.8576099 38.1733527,17.2453875 L23.5568224,36.4061705 C21.9970733,38.4498718 19.5826859,37.8170272 18.3970089,35.2109032 Z" id="Fill-1" fill="#232323" transform="translate(24.614459, 23.892663) rotate(-307.000000) translate(-24.614459, -23.892663) "></path>
                    </g>
                </g>
            </g>
        </g>
    </g>
</svg>